# xmcd
#
# Track frame offsets: 
#        183
#        10740
#        22193
#        33018
#        45590
#        58075
#        71848
#        86203
#        95623
#        109275
#        122898
#        137268
#        151915
#        163570
#        174590
#        185953
#        201750
#        217735
#        239600
#        261415
#
# Disc length: 3738 seconds
#
# Revision: 1
# Processed by: cddbd v1.5.1PL2 Copyright (c) Steve Scherf et al.
# Submitted via: ExactAudioCopy v0.95b3
#
DISCID=1f0e9814
DTITLE=Sydney Bechet - Bluebird Sessions 4
DYEAR=1941
DGENRE=Jazz
TTITLE0=Rip Up the Joint 
TTITLE1=Suey (1) 
TTITLE2=Suey (2) 
TTITLE3=Blues in the Air (1) 
TTITLE4=Blues in the Air (2) 
TTITLE5=The Moochie (1) 
TTITLE6=The Moochie (2) 
TTITLE7=Laughin' in Rhythm 
TTITLE8=12th Street Rag (1) 
TTITLE9=12th Street Rag (2)
TTITLE10=Mood Indigo (1) 
TTITLE11=Mood Indigo (2) 
TTITLE12=Rose Room 
TTITLE13=Oh, Lady Be Good (1) 
TTITLE14=Oh, Lady Be Good (2) 
TTITLE15=What Is This Thing Called Love? (1) 
TTITLE16=What Is This Thing Called Love? (2)
TTITLE17=After You've Gone 
TTITLE18=Bugle Call Rag/Ole Miss Blues 
TTITLE19=St. Louis Blues 
EXTD=
EXTT0=
EXTT1=
EXTT2=
EXTT3=
EXTT4=
EXTT5=
EXTT6=
EXTT7=
EXTT8=
EXTT9=
EXTT10=
EXTT11=
EXTT12=
EXTT13=
EXTT14=
EXTT15=
EXTT16=
EXTT17=
EXTT18=
EXTT19=
PLAYORDER=
